<mxfile host="app.diagrams.net" modified="2024-05-19T23:05:49.727Z" agent="Mozilla/5.0 (Windows NT 10.0; Win64; x64) AppleWebKit/537.36 (KHTML, like Gecko) Chrome/123.0.0.0 Safari/537.36 OPR/109.0.0.0" etag="rojXKze3-CEjXZuv2nZu" version="24.4.4" type="github">
  <diagram name="Сторінка-1" id="FEp7lu4pxWlQpjzQfAse">
    <mxGraphModel dx="1230" dy="696" grid="1" gridSize="10" guides="1" tooltips="1" connect="1" arrows="1" fold="1" page="1" pageScale="1" pageWidth="827" pageHeight="1169" math="0" shadow="0">
      <root>
        <mxCell id="0" />
        <mxCell id="1" parent="0" />
        <mxCell id="nkeZ1zDKkdtDhTpdN3cv-1" value="Actor" style="shape=umlActor;verticalLabelPosition=bottom;verticalAlign=top;html=1;outlineConnect=0;" vertex="1" parent="1">
          <mxGeometry x="90" y="340" width="30" height="60" as="geometry" />
        </mxCell>
        <mxCell id="nkeZ1zDKkdtDhTpdN3cv-3" value="" style="endArrow=none;html=1;rounded=0;entryX=0;entryY=0.5;entryDx=0;entryDy=0;endFill=0;" edge="1" parent="1" source="nkeZ1zDKkdtDhTpdN3cv-1" target="nkeZ1zDKkdtDhTpdN3cv-6">
          <mxGeometry width="50" height="50" relative="1" as="geometry">
            <mxPoint x="190" y="310" as="sourcePoint" />
            <mxPoint x="270" y="185" as="targetPoint" />
          </mxGeometry>
        </mxCell>
        <mxCell id="nkeZ1zDKkdtDhTpdN3cv-4" value="" style="swimlane;startSize=0;" vertex="1" parent="1">
          <mxGeometry x="160" y="80" width="550" height="550" as="geometry" />
        </mxCell>
        <mxCell id="nkeZ1zDKkdtDhTpdN3cv-6" value="Додавання нового завдання" style="ellipse;whiteSpace=wrap;html=1;" vertex="1" parent="nkeZ1zDKkdtDhTpdN3cv-4">
          <mxGeometry x="50" y="20" width="120" height="80" as="geometry" />
        </mxCell>
        <mxCell id="nkeZ1zDKkdtDhTpdN3cv-7" value="редагування вмісту завдання" style="ellipse;whiteSpace=wrap;html=1;" vertex="1" parent="nkeZ1zDKkdtDhTpdN3cv-4">
          <mxGeometry x="150" y="100" width="120" height="80" as="geometry" />
        </mxCell>
        <mxCell id="nkeZ1zDKkdtDhTpdN3cv-9" value="видалення завдання" style="ellipse;whiteSpace=wrap;html=1;" vertex="1" parent="nkeZ1zDKkdtDhTpdN3cv-4">
          <mxGeometry x="300" y="120" width="120" height="80" as="geometry" />
        </mxCell>
        <mxCell id="nkeZ1zDKkdtDhTpdN3cv-11" value="перегляд списку завдань" style="ellipse;whiteSpace=wrap;html=1;" vertex="1" parent="nkeZ1zDKkdtDhTpdN3cv-4">
          <mxGeometry x="270" y="250" width="120" height="80" as="geometry" />
        </mxCell>
        <mxCell id="nkeZ1zDKkdtDhTpdN3cv-13" value="маркування завдання як виконаного" style="ellipse;whiteSpace=wrap;html=1;" vertex="1" parent="nkeZ1zDKkdtDhTpdN3cv-4">
          <mxGeometry x="150" y="310" width="120" height="80" as="geometry" />
        </mxCell>
        <mxCell id="nkeZ1zDKkdtDhTpdN3cv-15" value="include" style="endArrow=classic;html=1;rounded=0;exitX=1;exitY=0.413;exitDx=0;exitDy=0;exitPerimeter=0;dashed=1;entryX=0.033;entryY=0.4;entryDx=0;entryDy=0;entryPerimeter=0;" edge="1" parent="nkeZ1zDKkdtDhTpdN3cv-4" source="nkeZ1zDKkdtDhTpdN3cv-6" target="nkeZ1zDKkdtDhTpdN3cv-16">
          <mxGeometry width="50" height="50" relative="1" as="geometry">
            <mxPoint x="240" y="90" as="sourcePoint" />
            <mxPoint x="240" y="50" as="targetPoint" />
          </mxGeometry>
        </mxCell>
        <mxCell id="nkeZ1zDKkdtDhTpdN3cv-16" value="вибір папки" style="ellipse;whiteSpace=wrap;html=1;" vertex="1" parent="nkeZ1zDKkdtDhTpdN3cv-4">
          <mxGeometry x="260" y="20" width="120" height="80" as="geometry" />
        </mxCell>
        <mxCell id="nkeZ1zDKkdtDhTpdN3cv-17" value="видалення папки" style="ellipse;whiteSpace=wrap;html=1;" vertex="1" parent="nkeZ1zDKkdtDhTpdN3cv-4">
          <mxGeometry x="410" y="180" width="120" height="80" as="geometry" />
        </mxCell>
        <mxCell id="nkeZ1zDKkdtDhTpdN3cv-20" value="&lt;br&gt;&lt;span style=&quot;color: rgb(0, 0, 0); font-family: Helvetica; font-size: 12px; font-style: normal; font-variant-ligatures: normal; font-variant-caps: normal; font-weight: 400; letter-spacing: normal; orphans: 2; text-align: center; text-indent: 0px; text-transform: none; widows: 2; word-spacing: 0px; -webkit-text-stroke-width: 0px; white-space: normal; background-color: rgb(251, 251, 251); text-decoration-thickness: initial; text-decoration-style: initial; text-decoration-color: initial; display: inline !important; float: none;&quot;&gt;Додавання нової папки&lt;/span&gt;&lt;div&gt;&lt;br/&gt;&lt;/div&gt;" style="ellipse;whiteSpace=wrap;html=1;" vertex="1" parent="nkeZ1zDKkdtDhTpdN3cv-4">
          <mxGeometry x="90" y="390" width="120" height="80" as="geometry" />
        </mxCell>
        <mxCell id="nkeZ1zDKkdtDhTpdN3cv-21" value="&lt;br&gt;&lt;span style=&quot;color: rgb(0, 0, 0); font-family: Helvetica; font-size: 12px; font-style: normal; font-variant-ligatures: normal; font-variant-caps: normal; font-weight: 400; letter-spacing: normal; orphans: 2; text-align: center; text-indent: 0px; text-transform: none; widows: 2; word-spacing: 0px; -webkit-text-stroke-width: 0px; white-space: normal; background-color: rgb(251, 251, 251); text-decoration-thickness: initial; text-decoration-style: initial; text-decoration-color: initial; display: inline !important; float: none;&quot;&gt;редагування розміщення завдання&lt;/span&gt;&lt;div&gt;&lt;br/&gt;&lt;/div&gt;" style="ellipse;whiteSpace=wrap;html=1;" vertex="1" parent="nkeZ1zDKkdtDhTpdN3cv-4">
          <mxGeometry x="320" y="410" width="120" height="80" as="geometry" />
        </mxCell>
        <mxCell id="nkeZ1zDKkdtDhTpdN3cv-8" value="" style="endArrow=none;html=1;rounded=0;exitX=1;exitY=0.3333333333333333;exitDx=0;exitDy=0;exitPerimeter=0;entryX=0;entryY=0.5;entryDx=0;entryDy=0;endFill=0;" edge="1" parent="1" source="nkeZ1zDKkdtDhTpdN3cv-1" target="nkeZ1zDKkdtDhTpdN3cv-7">
          <mxGeometry width="50" height="50" relative="1" as="geometry">
            <mxPoint x="150" y="410" as="sourcePoint" />
            <mxPoint x="200" y="360" as="targetPoint" />
          </mxGeometry>
        </mxCell>
        <mxCell id="nkeZ1zDKkdtDhTpdN3cv-10" value="" style="endArrow=none;html=1;rounded=0;entryX=0;entryY=0.5;entryDx=0;entryDy=0;" edge="1" parent="1" source="nkeZ1zDKkdtDhTpdN3cv-1" target="nkeZ1zDKkdtDhTpdN3cv-9">
          <mxGeometry width="50" height="50" relative="1" as="geometry">
            <mxPoint x="240" y="440" as="sourcePoint" />
            <mxPoint x="290" y="390" as="targetPoint" />
          </mxGeometry>
        </mxCell>
        <mxCell id="nkeZ1zDKkdtDhTpdN3cv-12" value="" style="endArrow=none;html=1;rounded=0;" edge="1" parent="1" source="nkeZ1zDKkdtDhTpdN3cv-1" target="nkeZ1zDKkdtDhTpdN3cv-11">
          <mxGeometry width="50" height="50" relative="1" as="geometry">
            <mxPoint x="180" y="460" as="sourcePoint" />
            <mxPoint x="230" y="410" as="targetPoint" />
          </mxGeometry>
        </mxCell>
        <mxCell id="nkeZ1zDKkdtDhTpdN3cv-14" value="" style="endArrow=none;html=1;rounded=0;entryX=-0.017;entryY=0.35;entryDx=0;entryDy=0;entryPerimeter=0;" edge="1" parent="1" source="nkeZ1zDKkdtDhTpdN3cv-1" target="nkeZ1zDKkdtDhTpdN3cv-13">
          <mxGeometry width="50" height="50" relative="1" as="geometry">
            <mxPoint x="130" y="550" as="sourcePoint" />
            <mxPoint x="180" y="500" as="targetPoint" />
          </mxGeometry>
        </mxCell>
        <mxCell id="nkeZ1zDKkdtDhTpdN3cv-18" value="" style="endArrow=none;html=1;rounded=0;entryX=0;entryY=0.5;entryDx=0;entryDy=0;" edge="1" parent="1" target="nkeZ1zDKkdtDhTpdN3cv-17">
          <mxGeometry width="50" height="50" relative="1" as="geometry">
            <mxPoint x="130" y="377" as="sourcePoint" />
            <mxPoint x="300" y="400" as="targetPoint" />
          </mxGeometry>
        </mxCell>
        <mxCell id="nkeZ1zDKkdtDhTpdN3cv-19" value="" style="endArrow=none;html=1;rounded=0;entryX=0;entryY=0.5;entryDx=0;entryDy=0;" edge="1" parent="1" source="nkeZ1zDKkdtDhTpdN3cv-1" target="nkeZ1zDKkdtDhTpdN3cv-20">
          <mxGeometry width="50" height="50" relative="1" as="geometry">
            <mxPoint x="280" y="560" as="sourcePoint" />
            <mxPoint x="330" y="510" as="targetPoint" />
          </mxGeometry>
        </mxCell>
        <mxCell id="nkeZ1zDKkdtDhTpdN3cv-22" value="" style="endArrow=none;html=1;rounded=0;entryX=0;entryY=0.5;entryDx=0;entryDy=0;" edge="1" parent="1" source="nkeZ1zDKkdtDhTpdN3cv-1" target="nkeZ1zDKkdtDhTpdN3cv-21">
          <mxGeometry width="50" height="50" relative="1" as="geometry">
            <mxPoint x="190" y="590" as="sourcePoint" />
            <mxPoint x="240" y="540" as="targetPoint" />
          </mxGeometry>
        </mxCell>
      </root>
    </mxGraphModel>
  </diagram>
</mxfile>
